# 3ds Max Wavefront OBJ Exporter v0.97b - (c)2007 guruware
# File Created: 28.05.2019 18:14:25

mtllib building05.mtl

#
# object Building_square
#

v  18.6425 55.9274 18.6425
v  18.6425 55.9274 -0.0000
v  18.6425 74.5699 -0.0000
v  18.6425 74.5699 18.6425
v  -18.6425 74.5699 18.6425
v  -18.6425 74.5699 -0.0000
v  -18.6425 55.9274 -0.0000
v  -18.6425 55.9274 18.6425
v  0.0000 74.5699 -18.6425
v  0.0000 55.9274 -18.6425
v  -18.6425 55.9274 -18.6425
v  -18.6425 74.5699 -18.6425
v  -0.0000 74.5699 18.6425
v  -0.0000 55.9274 18.6425
v  18.6425 37.2849 18.6425
v  18.6425 37.2849 -0.0000
v  0.0000 37.2849 -18.6425
v  -18.6425 37.2849 -18.6425
v  -18.6425 37.2849 -0.0000
v  -18.6425 37.2849 18.6425
v  -0.0000 37.2849 18.6425
v  18.6425 37.2849 -18.6425
v  18.6425 55.9274 -18.6425
v  18.6425 74.5699 -18.6425
v  18.6425 18.6424 -18.6425
v  -0.0000 18.6424 -18.6425
v  0.0000 18.6424 18.6425
v  18.6425 18.6424 18.6425
v  -18.6425 18.6424 -0.0000
v  -18.6425 18.6424 18.6425
v  18.6425 18.6424 -0.0000
v  18.6425 -0.0001 -18.6425
v  -0.0000 -0.0001 -18.6425
v  -18.6425 -0.0001 -0.0000
v  -18.6425 -0.0001 18.6425
v  0.0000 -0.0001 18.6425
v  18.6425 -0.0001 18.6425
v  18.6425 -0.0001 -0.0000
v  -18.6425 -0.0001 -18.6425
v  -18.6425 18.6424 -18.6425
v  -18.6425 -18.6426 -18.6425
v  -18.6425 -18.6426 -0.0000
v  18.6425 -18.6426 -0.0000
v  18.6425 -18.6426 -18.6425
v  0.0000 -18.6426 18.6425
v  18.6425 -18.6426 18.6425
v  -0.0000 -18.6426 -18.6425
v  -18.6425 -37.2851 -18.6425
v  -18.6425 -37.2851 -0.0000
v  0.0000 -37.2851 18.6425
v  18.6425 -37.2851 18.6425
v  18.6425 -37.2851 -0.0000
v  18.6425 -37.2851 -18.6425
v  -0.0000 -37.2851 -18.6425
v  -18.6425 -37.2851 18.6425
v  -18.6425 -18.6426 18.6425
v  -18.6425 -55.9276 18.6425
v  0.0000 -55.9276 18.6425
v  0.0000 -55.9276 -18.6425
v  -18.6425 -55.9276 -18.6425
v  18.6425 -55.9276 -0.0000
v  18.6425 -55.9276 -18.6425
v  -18.6425 -55.9276 -0.0000
v  -18.6425 -74.5701 18.6425
v  0.0000 -74.5701 18.6425
v  18.6425 -74.5701 -0.0000
v  18.6425 -74.5701 -18.6425
v  0.0000 -74.5701 -18.6425
v  -18.6425 -74.5701 -18.6425
v  -18.6425 -74.5701 -0.0000
v  18.6425 -74.5701 18.6425
v  18.6425 -55.9276 18.6425
v  -9.3212 74.5699 -18.6425
v  -9.3212 74.5699 -9.3212
v  0.0000 74.5699 -9.3212
v  9.3212 74.5699 -9.3212
v  18.6425 74.5699 -9.3212
v  9.3212 74.5699 -18.6425
v  -9.3212 74.5699 9.3212
v  -0.0000 74.5699 9.3212
v  0.0000 74.5699 -0.0000
v  -9.3212 74.5699 -0.0000
v  9.3212 74.5699 -0.0000
v  9.3212 74.5699 9.3212
v  18.6425 74.5699 9.3212
v  -18.6425 74.5699 -9.3212
v  -18.6425 74.5699 9.3212
v  -9.3212 74.5699 18.6425
v  9.3212 74.5699 18.6425
# 89 vertices

vn 1.0000 0.0000 0.0000
vn -1.0000 0.0000 0.0000
vn 0.0000 0.0000 -1.0000
vn 0.0000 0.0000 1.0000
vn 0.0000 1.0000 0.0000
vn 0.0000 1.0000 -0.0000
# 6 vertex normals

vt 0.0000 0.6250 0.0000
vt 0.3750 0.6250 0.0000
vt 0.3750 1.0000 0.0000
vt 0.0000 1.0000 0.0000
vt 0.7500 1.0000 0.0000
vt 0.7500 0.6250 0.0000
vt 0.0000 0.2500 0.0000
vt 0.3750 0.2500 0.0000
vt 0.7500 0.2500 0.0000
vt 0.8762 0.2488 0.0000
vt 0.8762 0.1262 0.0000
vt 0.9988 0.1262 0.0000
vt 0.9988 0.2488 0.0000
vt 0.8738 0.1262 0.0000
vt 0.8738 0.2488 0.0000
vt 0.7512 0.2488 0.0000
vt 0.7512 0.1262 0.0000
vt 0.8762 0.1238 0.0000
vt 0.8762 0.0012 0.0000
vt 0.9988 0.0012 0.0000
vt 0.9988 0.1238 0.0000
vt 0.7513 0.1262 0.0000
vt 0.8737 0.1262 0.0000
vt 0.8737 0.2488 0.0000
vt 0.7513 0.2488 0.0000
# 25 texture coords

g Building_square
usemtl 01___Default
f 1/1/1 2/2/1 3/3/1 
f 3/3/1 4/4/1 1/1/1 
f 5/5/2 6/3/2 7/2/2 
f 7/2/2 8/6/2 5/5/2 
f 9/1/3 10/7/3 11/8/3 
f 11/8/3 12/2/3 9/1/3 
f 13/2/4 14/8/4 1/9/4 
f 1/9/4 4/6/4 13/2/4 
f 15/7/1 16/8/1 2/2/1 
f 2/2/1 1/1/1 15/7/1 
f 10/4/3 17/1/3 18/2/3 
f 18/2/3 11/3/3 10/4/3 
f 8/2/2 7/1/2 19/7/2 
f 19/7/2 20/8/2 8/2/2 
f 14/3/4 21/2/4 15/6/4 
f 15/6/4 1/5/4 14/3/4 
f 2/2/1 16/8/1 22/9/1 
f 22/9/1 23/6/1 2/2/1 
f 3/3/1 2/2/1 23/6/1 
f 23/6/1 24/5/1 3/3/1 
f 7/9/2 6/6/2 12/2/2 
f 12/2/2 11/8/2 7/9/2 
f 19/2/2 7/3/2 11/4/2 
f 11/4/2 18/1/2 19/2/2 
f 8/7/4 14/8/4 13/2/4 
f 13/2/4 5/1/4 8/7/4 
f 20/1/4 21/2/4 14/3/4 
f 14/3/4 8/4/4 20/1/4 
f 23/8/3 10/9/3 9/6/3 
f 9/6/3 24/2/3 23/8/3 
f 22/2/3 17/6/3 10/5/3 
f 10/5/3 23/3/3 22/2/3 
f 25/1/3 26/2/3 17/3/3 
f 17/3/3 22/4/3 25/1/3 
f 15/5/4 21/3/4 27/2/4 
f 27/2/4 28/6/4 15/5/4 
f 19/1/2 29/7/2 30/8/2 
f 30/8/2 20/2/2 19/1/2 
f 16/2/1 31/8/1 25/9/1 
f 25/9/1 22/6/1 16/2/1 
f 32/7/3 33/8/3 26/2/3 
f 26/2/3 25/1/3 32/7/3 
f 29/4/2 34/1/2 35/2/2 
f 35/2/2 30/3/2 29/4/2 
f 28/2/4 27/1/4 36/7/4 
f 36/7/4 37/8/4 28/2/4 
f 31/3/1 38/2/1 32/6/1 
f 32/6/1 25/5/1 31/3/1 
f 26/2/3 33/8/3 39/9/3 
f 39/9/3 40/6/3 26/2/3 
f 17/3/3 26/2/3 40/6/3 
f 40/6/3 18/5/3 17/3/3 
f 27/9/4 21/6/4 20/2/4 
f 20/2/4 30/8/4 27/9/4 
f 36/2/4 27/3/4 30/4/4 
f 30/4/4 35/1/4 36/2/4 
f 28/7/1 31/8/1 16/2/1 
f 16/2/1 15/1/1 28/7/1 
f 37/1/1 38/2/1 31/3/1 
f 31/3/1 28/4/1 37/1/1 
f 40/8/2 29/9/2 19/6/2 
f 19/6/2 18/2/2 40/8/2 
f 39/2/2 34/6/2 29/5/2 
f 29/5/2 40/3/2 39/2/2 
f 41/1/2 42/2/2 34/3/2 
f 34/3/2 39/4/2 41/1/2 
f 32/5/1 38/3/1 43/2/1 
f 43/2/1 44/6/1 32/5/1 
f 36/1/4 45/7/4 46/8/4 
f 46/8/4 37/2/4 36/1/4 
f 33/2/3 47/8/3 41/9/3 
f 41/9/3 39/6/3 33/2/3 
f 48/7/2 49/8/2 42/2/2 
f 42/2/2 41/1/2 48/7/2 
f 45/4/4 50/1/4 51/2/4 
f 51/2/4 46/3/4 45/4/4 
f 44/2/1 43/1/1 52/7/1 
f 52/7/1 53/8/1 44/2/1 
f 47/3/3 54/2/3 48/6/3 
f 48/6/3 41/5/3 47/3/3 
f 42/2/2 49/8/2 55/9/2 
f 55/9/2 56/6/2 42/2/2 
f 34/3/2 42/2/2 56/6/2 
f 56/6/2 35/5/2 34/3/2 
f 43/9/1 38/6/1 37/2/1 
f 37/2/1 46/8/1 43/9/1 
f 52/2/1 43/3/1 46/4/1 
f 46/4/1 51/1/1 52/2/1 
f 44/7/3 47/8/3 33/2/3 
f 33/2/3 32/1/3 44/7/3 
f 53/1/3 54/2/3 47/3/3 
f 47/3/3 44/4/3 53/1/3 
f 56/8/4 45/9/4 36/6/4 
f 36/6/4 35/2/4 56/8/4 
f 55/2/4 50/6/4 45/5/4 
f 45/5/4 56/3/4 55/2/4 
f 57/1/4 58/2/4 50/3/4 
f 50/3/4 55/4/4 57/1/4 
f 48/5/3 54/3/3 59/2/3 
f 59/2/3 60/6/3 48/5/3 
f 52/1/1 61/7/1 62/8/1 
f 62/8/1 53/2/1 52/1/1 
f 49/2/2 63/8/2 57/9/2 
f 57/9/2 55/6/2 49/2/2 
f 64/7/4 65/8/4 58/2/4 
f 58/2/4 57/1/4 64/7/4 
f 61/4/1 66/1/1 67/2/1 
f 67/2/1 62/3/1 61/4/1 
f 60/2/3 59/1/3 68/7/3 
f 68/7/3 69/8/3 60/2/3 
f 63/3/2 70/2/2 64/6/2 
f 64/6/2 57/5/2 63/3/2 
f 58/2/4 65/8/4 71/9/4 
f 71/9/4 72/6/4 58/2/4 
f 50/3/4 58/2/4 72/6/4 
f 72/6/4 51/5/4 50/3/4 
f 59/9/3 54/6/3 53/2/3 
f 53/2/3 62/8/3 59/9/3 
f 68/2/3 59/3/3 62/4/3 
f 62/4/3 67/1/3 68/2/3 
f 60/7/2 63/8/2 49/2/2 
f 49/2/2 48/1/2 60/7/2 
f 69/1/2 70/2/2 63/3/2 
f 63/3/2 60/4/2 69/1/2 
f 72/8/1 61/9/1 52/6/1 
f 52/6/1 51/2/1 72/8/1 
f 71/2/1 66/6/1 61/5/1 
f 61/5/1 72/3/1 71/2/1 
f 73/10/5 74/11/6 75/12/5 
f 75/12/5 9/13/5 73/10/5 
f 76/14/5 77/15/5 24/16/5 
f 24/16/5 78/17/5 76/14/5 
f 79/18/5 80/19/5 81/20/5 
f 81/20/5 82/21/6 79/18/5 
f 3/10/5 83/11/5 84/12/5 
f 84/12/5 85/13/5 3/10/5 
f 75/11/5 76/12/5 78/13/5 
f 78/13/5 9/10/5 75/11/5 
f 80/21/5 84/18/5 83/19/5 
f 83/19/5 81/20/5 80/21/5 
f 86/17/5 74/14/6 73/15/5 
f 73/15/5 12/16/5 86/17/5 
f 87/10/5 79/11/5 82/12/6 
f 82/12/6 6/13/5 87/10/5 
f 6/10/5 82/11/6 74/12/6 
f 74/12/6 86/13/5 6/10/5 
f 75/21/5 74/18/6 82/19/6 
f 82/19/6 81/20/5 75/21/5 
f 83/21/5 76/18/5 75/19/5 
f 75/19/5 81/20/5 83/21/5 
f 3/13/5 77/10/5 76/11/5 
f 76/11/5 83/12/5 3/13/5 
f 88/22/5 79/23/5 87/24/5 
f 87/24/5 5/25/5 88/22/5 
f 13/10/5 80/11/5 79/12/5 
f 79/12/5 88/13/5 13/10/5 
f 89/10/5 84/11/5 80/12/5 
f 80/12/5 13/13/5 89/10/5 
f 85/17/5 84/14/5 89/15/5 
f 89/15/5 4/16/5 85/17/5 
# 160 faces

