# 3ds Max Wavefront OBJ Exporter v0.97b - (c)2007 guruware
# File Created: 11.06.2019 02:16:40

mtllib laserQuad.mtl

#
# object Laser01
#

v  0.6447 0.2173 -0.2427
v  0.6449 0.4253 1.2755
v  0.4367 0.4253 -0.3467
v  0.6446 0.4253 -0.8875
v  0.6447 0.6333 -0.2427
v  0.8735 0.4253 -0.3467
v  -0.6448 0.6332 -0.2426
v  -0.4368 0.4252 -0.3466
v  -0.6449 0.4252 -0.8873
v  -0.8736 0.4252 -0.3465
v  -0.6446 0.4253 1.2757
v  -0.6448 0.2173 -0.2426
# 12 vertices

vn -0.7269 -0.6804 0.0933
vn -0.6238 -0.7438 -0.2399
vn -0.6239 0.7438 -0.2399
vn -0.7270 0.6803 0.0933
vn 0.6935 -0.7138 0.0977
vn 0.6934 0.7139 0.0977
vn 0.6238 0.7438 -0.2400
vn 0.5873 0.7703 -0.2486
vn -0.6934 0.7138 0.0979
vn -0.5874 0.7703 -0.2484
vn -0.6934 -0.7139 0.0979
vn 0.7269 0.6804 0.0931
vn 0.7270 -0.6803 0.0931
vn -0.5873 -0.7703 -0.2484
vn 0.5873 -0.7703 -0.2485
vn 0.6238 -0.7438 -0.2400
# 16 vertex normals

vt 1.8610 1.0379 0.0000
vt 1.0263 0.9513 0.0000
vt 0.8754 1.0281 0.0000
vt 0.1228 1.3582 0.0000
vt 0.0650 1.0538 0.0000
vt 0.3427 1.0104 0.0000
vt 0.3810 0.9905 0.0000
vt 1.1897 1.0183 0.0000
vt 1.6695 0.8797 0.0000
# 9 texture coords

g Laser01
usemtl 01___Default
f 1/1/1 2/2/1 3/3/1 
f 1/1/2 3/3/2 4/4/2 
f 4/4/3 3/3/3 5/5/3 
f 3/3/4 2/2/4 5/5/4 
f 1/1/5 6/6/5 2/2/5 
f 2/2/6 6/6/6 5/5/6 
f 7/7/7 8/6/7 9/4/7 
f 6/6/8 4/4/8 5/5/8 
f 7/7/9 10/8/9 11/2/9 
f 7/7/10 9/4/10 10/8/10 
f 11/2/11 10/8/11 12/9/11 
f 7/7/12 11/2/12 8/6/12 
f 8/6/13 11/2/13 12/9/13 
f 10/8/14 9/4/14 12/9/14 
f 1/1/15 4/4/15 6/6/15 
f 9/4/16 8/6/16 12/9/16 
# 16 faces

#
# object Laser02
#

v  0.6447 -0.6260 -0.2427
v  0.6449 -0.4180 1.2755
v  0.4367 -0.4181 -0.3467
v  0.6446 -0.4181 -0.8875
v  0.6447 -0.2101 -0.2427
v  0.8735 -0.4181 -0.3467
v  -0.6448 -0.2101 -0.2426
v  -0.4368 -0.4181 -0.3466
v  -0.6449 -0.4181 -0.8873
v  -0.8736 -0.4181 -0.3465
v  -0.6446 -0.4181 1.2757
v  -0.6448 -0.6261 -0.2426
# 12 vertices

vn -0.7269 -0.6804 0.0933
vn -0.6238 -0.7438 -0.2399
vn -0.6239 0.7438 -0.2399
vn -0.7270 0.6803 0.0933
vn 0.6935 -0.7138 0.0977
vn 0.6934 0.7139 0.0977
vn 0.6238 0.7438 -0.2400
vn 0.5873 0.7703 -0.2486
vn -0.6934 0.7138 0.0979
vn -0.5874 0.7703 -0.2484
vn -0.6934 -0.7139 0.0979
vn 0.7269 0.6804 0.0931
vn 0.7270 -0.6803 0.0931
vn -0.5873 -0.7703 -0.2484
vn 0.5873 -0.7703 -0.2485
vn 0.6238 -0.7438 -0.2400
# 16 vertex normals

vt 1.8610 1.0379 0.0000
vt 1.0263 0.9513 0.0000
vt 0.8754 1.0281 0.0000
vt 0.1228 1.3582 0.0000
vt 0.0650 1.0538 0.0000
vt 0.3427 1.0104 0.0000
vt 0.3810 0.9905 0.0000
vt 1.1897 1.0183 0.0000
vt 1.6695 0.8797 0.0000
# 9 texture coords

g Laser02
usemtl 01___Default
f 13/10/17 14/11/17 15/12/17 
f 13/10/18 15/12/18 16/13/18 
f 16/13/19 15/12/19 17/14/19 
f 15/12/20 14/11/20 17/14/20 
f 13/10/21 18/15/21 14/11/21 
f 14/11/22 18/15/22 17/14/22 
f 19/16/23 20/15/23 21/13/23 
f 18/15/24 16/13/24 17/14/24 
f 19/16/25 22/17/25 23/11/25 
f 19/16/26 21/13/26 22/17/26 
f 23/11/27 22/17/27 24/18/27 
f 19/16/28 23/11/28 20/15/28 
f 20/15/29 23/11/29 24/18/29 
f 22/17/30 21/13/30 24/18/30 
f 13/10/31 16/13/31 18/15/31 
f 21/13/32 20/15/32 24/18/32 
# 16 faces

