# 3ds Max Wavefront OBJ Exporter v0.97b - (c)2007 guruware
# File Created: 12.06.2019 03:20:49

mtllib laser.mtl

#
# object Laser01
#

v  0.0159 0.3187 -0.6692
v  0.3346 0.0000 -0.8285
v  0.0158 -0.0000 -1.6570
v  -0.3346 -0.0000 -0.8285
v  0.0163 0.0000 1.6570
v  0.0160 -0.3187 -0.6692
# 6 vertices

vn 0.6238 0.7438 -0.2400
vn -0.6934 0.7138 0.0979
vn -0.5874 0.7703 -0.2484
vn -0.6934 -0.7139 0.0979
vn 0.7269 0.6804 0.0931
vn 0.7270 -0.6803 0.0931
vn -0.5873 -0.7703 -0.2484
vn 0.6238 -0.7438 -0.2400
# 8 vertex normals

vt 0.3810 0.9905 0.0000
vt 0.3427 1.0104 0.0000
vt 0.1228 1.3582 0.0000
vt 1.1897 1.0183 0.0000
vt 1.0263 0.9513 0.0000
vt 1.6695 0.8797 0.0000
# 6 texture coords

g Laser01
usemtl 01___Default
f 1/1/1 2/2/1 3/3/1 
f 1/1/2 4/4/2 5/5/2 
f 1/1/3 3/3/3 4/4/3 
f 5/5/4 4/4/4 6/6/4 
f 1/1/5 5/5/5 2/2/5 
f 2/2/6 5/5/6 6/6/6 
f 4/4/7 3/3/7 6/6/7 
f 3/3/8 2/2/8 6/6/8 
# 8 faces

