# 3ds Max Wavefront OBJ Exporter v0.97b - (c)2007 guruware
# File Created: 28.05.2019 17:52:48

mtllib building04.mtl

#
# object Building_square2tier
#

v  14.5331 65.3989 29.0663
v  14.5331 65.3989 14.5331
v  14.5331 79.9321 14.5331
v  14.5331 79.9321 29.0663
v  -14.5331 79.9321 29.0663
v  -14.5331 79.9321 14.5331
v  -14.5331 65.3989 14.5331
v  -14.5331 65.3989 29.0663
v  0.0000 79.9321 0.0000
v  0.0000 65.3989 0.0000
v  -14.5331 65.3989 0.0000
v  -14.5331 79.9321 0.0000
v  -0.0000 79.9321 29.0663
v  -0.0000 65.3989 29.0663
v  14.5331 50.8658 29.0663
v  14.5331 50.8658 14.5331
v  0.0000 50.8658 0.0000
v  -14.5331 50.8658 0.0000
v  -14.5331 50.8658 14.5331
v  -14.5331 50.8658 29.0663
v  -0.0000 50.8658 29.0663
v  14.5331 50.8658 0.0000
v  14.5331 65.3989 0.0000
v  14.5331 79.9321 0.0000
v  14.5331 36.3327 0.0000
v  -0.0000 36.3327 0.0000
v  0.0000 36.3327 29.0663
v  14.5331 36.3327 29.0663
v  -14.5331 36.3327 14.5331
v  -14.5331 36.3327 29.0663
v  14.5331 36.3327 14.5331
v  14.5331 21.7995 0.0000
v  0.0000 21.7995 0.0000
v  -14.5331 21.7995 14.5331
v  -14.5331 21.7995 29.0663
v  0.0000 21.7995 29.0663
v  14.5331 21.7995 29.0663
v  14.5331 21.7995 14.5331
v  -14.5331 21.7995 0.0000
v  -14.5331 36.3327 0.0000
v  -14.5331 7.2664 0.0000
v  -14.5331 7.2664 14.5331
v  14.5331 7.2664 14.5331
v  14.5331 7.2664 0.0000
v  0.0000 7.2664 29.0663
v  14.5331 7.2664 29.0663
v  -14.5331 -7.2667 0.0000
v  -14.5331 -7.2667 14.5331
v  0.0000 -7.2667 29.0663
v  14.5331 -7.2667 29.0663
v  14.5331 -7.2667 14.5331
v  14.5331 -7.2667 0.0000
v  -14.5331 -7.2667 29.0663
v  -14.5331 7.2664 29.0663
v  -14.5331 -21.7999 29.0663
v  0.0000 -21.7999 29.0663
v  14.5331 -21.7999 14.5331
v  14.5331 -21.7999 0.0000
v  -14.5331 -21.7999 14.5331
v  -14.5331 -36.3330 29.0663
v  0.0000 -36.3330 29.0663
v  14.5331 -36.3330 14.5331
v  14.5331 -36.3330 0.0000
v  -14.5331 -36.3330 14.5331
v  14.5331 -36.3330 29.0663
v  14.5331 -21.7999 29.0663
v  -14.5331 -21.7999 0.0000
v  -14.5331 -36.3330 0.0000
v  -7.2666 79.9321 0.0000
v  -7.2666 79.9321 7.2666
v  0.0000 79.9321 7.2666
v  7.2666 79.9321 7.2666
v  14.5331 79.9321 7.2666
v  7.2666 79.9321 0.0000
v  -7.2666 79.9321 21.7997
v  -0.0000 79.9321 21.7997
v  0.0000 79.9321 14.5331
v  -7.2666 79.9321 14.5331
v  7.2666 79.9321 14.5331
v  7.2666 79.9321 21.7997
v  14.5331 79.9321 21.7997
v  -14.5331 79.9321 7.2666
v  -14.5331 79.9321 21.7997
v  -7.2666 79.9321 29.0663
v  7.2666 79.9321 29.0663
v  14.5331 7.2664 -14.5331
v  14.5331 21.7995 -14.5331
v  -14.5331 21.7995 -14.5331
v  -14.5331 7.2664 -14.5331
v  0.0000 21.7995 -29.0663
v  0.0000 7.2664 -29.0663
v  -14.5331 7.2664 -29.0663
v  -14.5331 21.7995 -29.0663
v  14.5331 -7.2667 -14.5331
v  0.0000 -7.2667 -29.0663
v  -14.5331 -7.2667 -29.0663
v  -14.5331 -7.2667 -14.5331
v  14.5331 -7.2667 -29.0663
v  14.5331 7.2664 -29.0663
v  14.5331 21.7995 -29.0663
v  14.5331 -21.7999 -29.0663
v  0.0000 -21.7999 -29.0663
v  -14.5331 -21.7999 -14.5331
v  14.5331 -21.7999 -14.5331
v  14.5331 -36.3330 -29.0663
v  0.0000 -36.3330 -29.0663
v  -14.5331 -36.3330 -14.5331
v  14.5331 -36.3330 -14.5331
v  -14.5331 -36.3330 -29.0663
v  -14.5331 -21.7999 -29.0663
v  -7.2666 21.7995 -29.0663
v  -7.2666 21.7995 -21.7997
v  0.0000 21.7995 -21.7997
v  7.2666 21.7995 -21.7997
v  14.5331 21.7995 -21.7997
v  7.2666 21.7995 -29.0663
v  -7.2666 21.7995 -7.2666
v  0.0000 21.7995 -7.2666
v  0.0000 21.7995 -14.5331
v  -7.2666 21.7995 -14.5331
v  7.2666 21.7995 -14.5331
v  7.2666 21.7995 -7.2666
v  14.5331 21.7995 -7.2666
v  -14.5331 21.7995 -21.7997
v  -14.5331 21.7995 -7.2666
v  -7.2666 21.7995 0.0000
v  7.2666 21.7995 0.0000
v  -14.5331 -65.3992 0.0000
v  -14.5331 -65.3992 14.5331
v  -14.5331 -50.8661 14.5331
v  -14.5331 -50.8661 0.0000
v  14.5331 -50.8661 0.0000
v  14.5331 -50.8661 14.5331
v  14.5331 -65.3992 14.5331
v  14.5331 -65.3992 0.0000
v  0.0000 -50.8661 29.0663
v  0.0000 -65.3992 29.0663
v  14.5331 -65.3992 29.0663
v  14.5331 -50.8661 29.0663
v  -14.5331 -79.9324 0.0000
v  -14.5331 -79.9324 14.5331
v  0.0000 -79.9324 29.0663
v  14.5331 -79.9324 29.0663
v  14.5331 -79.9324 14.5331
v  14.5331 -79.9324 0.0000
v  -14.5331 -79.9324 29.0663
v  -14.5331 -65.3992 29.0663
v  -14.5331 -50.8661 29.0663
v  14.5331 -65.3992 -14.5331
v  14.5331 -50.8661 -14.5331
v  -14.5331 -50.8661 -14.5331
v  -14.5331 -65.3992 -14.5331
v  0.0000 -50.8661 -29.0663
v  0.0000 -65.3992 -29.0663
v  -14.5331 -65.3992 -29.0663
v  -14.5331 -50.8661 -29.0663
v  14.5331 -79.9324 -14.5331
v  0.0000 -79.9324 -29.0663
v  -14.5331 -79.9324 -29.0663
v  -14.5331 -79.9324 -14.5331
v  14.5331 -79.9324 -29.0663
v  14.5331 -65.3992 -29.0663
v  14.5331 -50.8661 -29.0663
# 163 vertices

vn 1.0000 0.0000 0.0000
vn -1.0000 0.0000 0.0000
vn 0.0000 0.0000 -1.0000
vn 0.0000 0.0000 1.0000
vn 0.0000 1.0000 0.0000
vn 0.0000 1.0000 -0.0000
# 6 vertex normals

vt 0.0000 0.6250 0.0000
vt 0.3750 0.6250 0.0000
vt 0.3750 1.0000 0.0000
vt 0.0000 1.0000 0.0000
vt 0.7500 1.0000 0.0000
vt 0.7500 0.6250 0.0000
vt 0.0000 0.2500 0.0000
vt 0.3750 0.2500 0.0000
vt 0.7500 0.2500 0.0000
vt 0.8762 0.2488 0.0000
vt 0.8762 0.1262 0.0000
vt 0.9988 0.1262 0.0000
vt 0.9988 0.2488 0.0000
vt 0.8738 0.1262 0.0000
vt 0.8738 0.2488 0.0000
vt 0.7512 0.2488 0.0000
vt 0.7512 0.1262 0.0000
vt 0.8762 0.1238 0.0000
vt 0.8762 0.0012 0.0000
vt 0.9988 0.0012 0.0000
vt 0.9988 0.1238 0.0000
vt 0.7513 0.1262 0.0000
vt 0.8737 0.1262 0.0000
vt 0.8737 0.2488 0.0000
vt 0.7513 0.2488 0.0000
vt -0.0000 0.2500 0.0000
vt -0.0000 0.6250 0.0000
# 27 texture coords

g Building_square2tier
usemtl 01___Default
f 1/1/1 2/2/1 3/3/1 
f 3/3/1 4/4/1 1/1/1 
f 5/5/2 6/3/2 7/2/2 
f 7/2/2 8/6/2 5/5/2 
f 9/1/3 10/7/3 11/8/3 
f 11/8/3 12/2/3 9/1/3 
f 13/2/4 14/8/4 1/9/4 
f 1/9/4 4/6/4 13/2/4 
f 15/7/1 16/8/1 2/2/1 
f 2/2/1 1/1/1 15/7/1 
f 10/4/3 17/1/3 18/2/3 
f 18/2/3 11/3/3 10/4/3 
f 8/2/2 7/1/2 19/7/2 
f 19/7/2 20/8/2 8/2/2 
f 14/3/4 21/2/4 15/6/4 
f 15/6/4 1/5/4 14/3/4 
f 2/2/1 16/8/1 22/9/1 
f 22/9/1 23/6/1 2/2/1 
f 3/3/1 2/2/1 23/6/1 
f 23/6/1 24/5/1 3/3/1 
f 7/9/2 6/6/2 12/2/2 
f 12/2/2 11/8/2 7/9/2 
f 19/2/2 7/3/2 11/4/2 
f 11/4/2 18/1/2 19/2/2 
f 8/7/4 14/8/4 13/2/4 
f 13/2/4 5/1/4 8/7/4 
f 20/1/4 21/2/4 14/3/4 
f 14/3/4 8/4/4 20/1/4 
f 23/8/3 10/9/3 9/6/3 
f 9/6/3 24/2/3 23/8/3 
f 22/2/3 17/6/3 10/5/3 
f 10/5/3 23/3/3 22/2/3 
f 25/1/3 26/2/3 17/3/3 
f 17/3/3 22/4/3 25/1/3 
f 15/5/4 21/3/4 27/2/4 
f 27/2/4 28/6/4 15/5/4 
f 19/1/2 29/7/2 30/8/2 
f 30/8/2 20/2/2 19/1/2 
f 16/2/1 31/8/1 25/9/1 
f 25/9/1 22/6/1 16/2/1 
f 32/7/3 33/8/3 26/2/3 
f 26/2/3 25/1/3 32/7/3 
f 29/4/2 34/1/2 35/2/2 
f 35/2/2 30/3/2 29/4/2 
f 28/2/4 27/1/4 36/7/4 
f 36/7/4 37/8/4 28/2/4 
f 31/3/1 38/2/1 32/6/1 
f 32/6/1 25/5/1 31/3/1 
f 26/2/3 33/8/3 39/9/3 
f 39/9/3 40/6/3 26/2/3 
f 17/3/3 26/2/3 40/6/3 
f 40/6/3 18/5/3 17/3/3 
f 27/9/4 21/6/4 20/2/4 
f 20/2/4 30/8/4 27/9/4 
f 36/2/4 27/3/4 30/4/4 
f 30/4/4 35/1/4 36/2/4 
f 28/7/1 31/8/1 16/2/1 
f 16/2/1 15/1/1 28/7/1 
f 37/1/1 38/2/1 31/3/1 
f 31/3/1 28/4/1 37/1/1 
f 40/8/2 29/9/2 19/6/2 
f 19/6/2 18/2/2 40/8/2 
f 39/2/2 34/6/2 29/5/2 
f 29/5/2 40/3/2 39/2/2 
f 41/1/2 42/2/2 34/3/2 
f 34/3/2 39/4/2 41/1/2 
f 32/5/1 38/3/1 43/2/1 
f 43/2/1 44/6/1 32/5/1 
f 36/1/4 45/7/4 46/8/4 
f 46/8/4 37/2/4 36/1/4 
f 47/7/2 48/8/2 42/2/2 
f 42/2/2 41/1/2 47/7/2 
f 45/4/4 49/1/4 50/2/4 
f 50/2/4 46/3/4 45/4/4 
f 44/6/1 43/2/1 51/8/1 
f 51/8/1 52/9/1 44/6/1 
f 42/2/2 48/8/2 53/9/2 
f 53/9/2 54/6/2 42/2/2 
f 34/3/2 42/2/2 54/6/2 
f 54/6/2 35/5/2 34/3/2 
f 43/9/1 38/6/1 37/2/1 
f 37/2/1 46/8/1 43/9/1 
f 51/2/1 43/3/1 46/4/1 
f 46/4/1 50/1/1 51/2/1 
f 54/8/4 45/9/4 36/6/4 
f 36/6/4 35/2/4 54/8/4 
f 53/2/4 49/6/4 45/5/4 
f 45/5/4 54/3/4 53/2/4 
f 55/1/4 56/2/4 49/3/4 
f 49/3/4 53/4/4 55/1/4 
f 51/1/1 57/7/1 58/8/1 
f 58/8/1 52/2/1 51/1/1 
f 48/2/2 59/8/2 55/9/2 
f 55/9/2 53/6/2 48/2/2 
f 60/7/4 61/8/4 56/2/4 
f 56/2/4 55/1/4 60/7/4 
f 57/4/1 62/1/1 63/2/1 
f 63/2/1 58/3/1 57/4/1 
f 59/3/2 64/2/2 60/6/2 
f 60/6/2 55/5/2 59/3/2 
f 56/2/4 61/8/4 65/9/4 
f 65/9/4 66/6/4 56/2/4 
f 49/3/4 56/2/4 66/6/4 
f 66/6/4 50/5/4 49/3/4 
f 67/7/2 59/8/2 48/2/2 
f 48/2/2 47/1/2 67/7/2 
f 68/8/2 64/9/2 59/6/2 
f 59/6/2 67/2/2 68/8/2 
f 66/8/1 57/9/1 51/6/1 
f 51/6/1 50/2/1 66/8/1 
f 65/2/1 62/6/1 57/5/1 
f 57/5/1 66/3/1 65/2/1 
f 69/10/5 70/11/6 71/12/5 
f 71/12/5 9/13/5 69/10/5 
f 72/14/5 73/15/5 24/16/5 
f 24/16/5 74/17/5 72/14/5 
f 75/18/5 76/19/5 77/20/5 
f 77/20/5 78/21/6 75/18/5 
f 3/10/5 79/11/5 80/12/5 
f 80/12/5 81/13/5 3/10/5 
f 71/11/5 72/12/5 74/13/5 
f 74/13/5 9/10/5 71/11/5 
f 76/21/5 80/18/5 79/19/5 
f 79/19/5 77/20/5 76/21/5 
f 82/17/5 70/14/6 69/15/5 
f 69/15/5 12/16/5 82/17/5 
f 83/10/5 75/11/5 78/12/6 
f 78/12/6 6/13/5 83/10/5 
f 6/10/5 78/11/6 70/12/6 
f 70/12/6 82/13/5 6/10/5 
f 71/21/5 70/18/6 78/19/6 
f 78/19/6 77/20/5 71/21/5 
f 79/21/5 72/18/5 71/19/5 
f 71/19/5 77/20/5 79/21/5 
f 3/13/5 73/10/5 72/11/5 
f 72/11/5 79/12/5 3/13/5 
f 84/22/5 75/23/5 83/24/5 
f 83/24/5 5/25/5 84/22/5 
f 13/10/5 76/11/5 75/12/5 
f 75/12/5 84/13/5 13/10/5 
f 85/10/5 80/11/5 76/12/5 
f 76/12/5 13/13/5 85/10/5 
f 81/17/5 80/14/5 85/15/5 
f 85/15/5 4/16/5 81/17/5 
f 44/1/1 86/2/1 87/3/1 
f 87/3/1 32/4/1 44/1/1 
f 39/5/2 88/3/2 89/2/2 
f 89/2/2 41/6/2 39/5/2 
f 90/1/3 91/7/3 92/8/3 
f 92/8/3 93/2/3 90/1/3 
f 52/7/1 94/8/1 86/2/1 
f 86/2/1 44/1/1 52/7/1 
f 91/4/3 95/1/3 96/2/3 
f 96/2/3 92/3/3 91/4/3 
f 41/5/2 89/3/2 97/2/2 
f 97/2/2 47/6/2 41/5/2 
f 86/2/1 94/8/1 98/9/1 
f 98/9/1 99/6/1 86/2/1 
f 87/3/1 86/2/1 99/6/1 
f 99/6/1 100/5/1 87/3/1 
f 89/9/2 88/6/2 93/2/2 
f 93/2/2 92/8/2 89/9/2 
f 97/2/2 89/3/2 92/4/2 
f 92/4/2 96/1/2 97/2/2 
f 99/8/3 91/9/3 90/6/3 
f 90/6/3 100/2/3 99/8/3 
f 98/2/3 95/6/3 91/5/3 
f 91/5/3 99/3/3 98/2/3 
f 101/1/3 102/2/3 95/3/3 
f 95/3/3 98/4/3 101/1/3 
f 97/1/2 103/7/2 67/8/2 
f 67/8/2 47/2/2 97/1/2 
f 94/2/1 104/8/1 101/9/1 
f 101/9/1 98/6/1 94/2/1 
f 105/7/3 106/8/3 102/2/3 
f 102/2/3 101/1/3 105/7/3 
f 103/4/2 107/1/2 68/2/2 
f 68/2/2 67/3/2 103/4/2 
f 104/3/1 108/2/1 105/6/1 
f 105/6/1 101/5/1 104/3/1 
f 102/2/3 106/8/3 109/9/3 
f 109/9/3 110/6/3 102/2/3 
f 95/3/3 102/2/3 110/6/3 
f 110/6/3 96/5/3 95/3/3 
f 58/8/1 104/9/1 94/6/1 
f 94/6/1 52/2/1 58/8/1 
f 63/26/1 108/8/1 104/2/1 
f 104/2/1 58/27/1 63/26/1 
f 110/8/2 103/9/2 97/6/2 
f 97/6/2 96/2/2 110/8/2 
f 109/2/2 107/6/2 103/5/2 
f 103/5/2 110/3/2 109/2/2 
f 111/10/5 112/11/5 113/12/5 
f 113/12/5 90/13/5 111/10/5 
f 114/14/5 115/15/5 100/16/5 
f 100/16/5 116/17/5 114/14/5 
f 117/18/5 118/19/5 119/20/5 
f 119/20/5 120/21/5 117/18/5 
f 87/10/5 121/11/5 122/12/5 
f 122/12/5 123/13/5 87/10/5 
f 113/11/5 114/12/5 116/13/5 
f 116/13/5 90/10/5 113/11/5 
f 118/21/5 122/18/5 121/19/5 
f 121/19/5 119/20/5 118/21/5 
f 124/17/5 112/14/5 111/15/5 
f 111/15/5 93/16/5 124/17/5 
f 125/10/5 117/11/5 120/12/5 
f 120/12/5 88/13/5 125/10/5 
f 88/10/5 120/11/5 112/12/5 
f 112/12/5 124/13/5 88/10/5 
f 113/21/5 112/18/5 120/19/5 
f 120/19/5 119/20/5 113/21/5 
f 121/21/5 114/18/5 113/19/5 
f 113/19/5 119/20/5 121/21/5 
f 87/13/5 115/10/5 114/11/5 
f 114/11/5 121/12/5 87/13/5 
f 126/22/5 117/23/5 125/24/5 
f 125/24/5 39/25/5 126/22/5 
f 33/10/5 118/11/5 117/12/5 
f 117/12/5 126/13/5 33/10/5 
f 127/10/5 122/11/5 118/12/5 
f 118/12/5 33/13/5 127/10/5 
f 123/17/5 122/14/5 127/15/5 
f 127/15/5 32/16/5 123/17/5 
f 128/1/2 129/2/2 130/3/2 
f 130/3/2 131/4/2 128/1/2 
f 132/5/1 133/3/1 134/2/1 
f 134/2/1 135/6/1 132/5/1 
f 136/1/4 137/7/4 138/8/4 
f 138/8/4 139/2/4 136/1/4 
f 140/7/2 141/8/2 129/2/2 
f 129/2/2 128/1/2 140/7/2 
f 137/4/4 142/1/4 143/2/4 
f 143/2/4 138/3/4 137/4/4 
f 135/6/1 134/2/1 144/8/1 
f 144/8/1 145/9/1 135/6/1 
f 129/2/2 141/8/2 146/9/2 
f 146/9/2 147/6/2 129/2/2 
f 130/3/2 129/2/2 147/6/2 
f 147/6/2 148/5/2 130/3/2 
f 134/9/1 133/6/1 139/2/1 
f 139/2/1 138/8/1 134/9/1 
f 144/2/1 134/3/1 138/4/1 
f 138/4/1 143/1/1 144/2/1 
f 147/8/4 137/9/4 136/6/4 
f 136/6/4 148/2/4 147/8/4 
f 146/2/4 142/6/4 137/5/4 
f 137/5/4 147/3/4 146/2/4 
f 148/1/4 136/2/4 61/3/4 
f 61/3/4 60/4/4 148/1/4 
f 62/1/1 133/7/1 132/8/1 
f 132/8/1 63/2/1 62/1/1 
f 64/2/2 130/8/2 148/9/2 
f 148/9/2 60/6/2 64/2/2 
f 61/3/4 136/2/4 139/6/4 
f 139/6/4 65/5/4 61/3/4 
f 131/1/2 130/2/2 64/3/2 
f 64/3/2 68/4/2 131/1/2 
f 139/8/1 133/9/1 62/6/1 
f 62/6/1 65/2/1 139/8/1 
f 135/1/1 149/2/1 150/3/1 
f 150/3/1 132/4/1 135/1/1 
f 131/5/2 151/3/2 152/2/2 
f 152/2/2 128/6/2 131/5/2 
f 153/1/3 154/7/3 155/8/3 
f 155/8/3 156/2/3 153/1/3 
f 145/7/1 157/8/1 149/2/1 
f 149/2/1 135/1/1 145/7/1 
f 154/4/3 158/1/3 159/2/3 
f 159/2/3 155/3/3 154/4/3 
f 128/5/2 152/3/2 160/2/2 
f 160/2/2 140/6/2 128/5/2 
f 149/2/1 157/8/1 161/9/1 
f 161/9/1 162/6/1 149/2/1 
f 150/3/1 149/2/1 162/6/1 
f 162/6/1 163/5/1 150/3/1 
f 152/9/2 151/6/2 156/2/2 
f 156/2/2 155/8/2 152/9/2 
f 160/2/2 152/3/2 155/4/2 
f 155/4/2 159/1/2 160/2/2 
f 162/8/3 154/9/3 153/6/3 
f 153/6/3 163/2/3 162/8/3 
f 161/2/3 158/6/3 154/5/3 
f 154/5/3 162/3/3 161/2/3 
f 163/1/3 153/2/3 106/3/3 
f 106/3/3 105/4/3 163/1/3 
f 107/1/2 151/7/2 131/8/2 
f 131/8/2 68/2/2 107/1/2 
f 108/2/1 150/8/1 163/9/1 
f 163/9/1 105/6/1 108/2/1 
f 106/3/3 153/2/3 156/6/3 
f 156/6/3 109/5/3 106/3/3 
f 132/7/1 150/8/1 108/2/1 
f 108/2/1 63/1/1 132/7/1 
f 156/8/2 151/9/2 107/6/2 
f 107/6/2 109/2/2 156/8/2 
# 296 faces

