# 3ds Max Wavefront OBJ Exporter v0.97b - (c)2007 guruware
# File Created: 28.05.2019 02:55:50

mtllib building02.mtl

#
# object Building_octagonLongTier
#

v  -12.3902 29.7364 14.8683
v  -7.4341 29.7364 19.8243
v  -7.4341 39.6486 19.8243
v  -12.3902 39.6486 14.8683
v  7.4341 39.6486 9.9122
v  7.4341 29.7364 9.9122
v  7.4341 29.7364 0.0000
v  7.4341 39.6486 0.0000
v  -12.3902 39.6486 9.9122
v  -12.3902 29.7364 9.9122
v  -12.3902 19.8242 14.8683
v  -7.4341 19.8242 19.8243
v  -12.3902 19.8242 9.9122
v  -2.4780 29.7364 19.8243
v  -2.4780 19.8242 19.8243
v  2.4780 19.8242 19.8243
v  2.4780 29.7364 19.8243
v  -2.4780 39.6486 19.8243
v  2.4780 39.6486 19.8243
v  -12.3902 29.7364 0.0000
v  -12.3902 39.6486 0.0000
v  -12.3902 19.8242 0.0000
v  -12.3902 9.9121 14.8683
v  -12.3902 9.9121 9.9122
v  -2.4780 9.9121 19.8243
v  2.4780 9.9121 19.8243
v  -12.3902 -0.0001 14.8683
v  -12.3902 -0.0001 9.9122
v  -2.4780 -0.0001 19.8243
v  2.4780 -0.0001 19.8243
v  -12.3902 9.9121 0.0000
v  -12.3902 -0.0001 0.0000
v  -7.4341 9.9121 19.8243
v  -7.4341 -0.0001 19.8243
v  2.4780 -9.9123 19.8243
v  -2.4780 -9.9123 19.8243
v  -12.3902 -9.9123 9.9122
v  -12.3902 -9.9123 14.8683
v  -12.3902 -19.8244 9.9122
v  -12.3902 -19.8244 14.8683
v  2.4780 -19.8244 19.8243
v  -2.4780 -19.8244 19.8243
v  -7.4341 -9.9123 19.8243
v  -7.4341 -19.8244 19.8243
v  -12.3902 -9.9123 0.0000
v  -12.3902 -19.8244 0.0000
v  -12.3902 -29.7366 0.0000
v  -12.3902 -29.7366 9.9122
v  -2.4780 -29.7366 19.8243
v  2.4780 -29.7366 19.8243
v  -12.3902 -39.6488 0.0000
v  -12.3902 -39.6488 9.9122
v  -2.4780 -39.6488 19.8243
v  2.4780 -39.6488 19.8243
v  -12.3902 -39.6488 14.8683
v  -12.3902 -29.7366 14.8683
v  -7.4341 -29.7366 19.8243
v  -7.4341 -39.6488 19.8243
v  7.4341 39.6486 4.9561
v  2.4780 39.6486 4.9561
v  2.4780 39.6486 9.9122
v  2.4780 39.6486 14.8683
v  7.4341 39.6486 14.8683
v  -7.4341 39.6486 4.9561
v  -7.4341 39.6486 9.9122
v  -2.4780 39.6486 9.9122
v  -2.4780 39.6486 4.9561
v  -2.4780 39.6486 14.8683
v  -7.4341 39.6486 14.8683
v  2.4780 39.6486 0.0000
v  -7.4341 39.6486 0.0000
v  -2.4780 39.6486 0.0000
v  -12.3902 39.6486 4.9561
v  7.4341 29.7364 -9.9122
v  7.4341 39.6486 -9.9122
v  -12.3902 39.6486 -9.9122
v  -12.3902 29.7364 -9.9122
v  -2.4780 39.6486 -19.8243
v  -2.4780 29.7364 -19.8243
v  -7.4341 29.7364 -19.8243
v  -7.4341 39.6486 -19.8243
v  -2.4780 19.8242 -19.8243
v  -7.4341 19.8242 -19.8243
v  -12.3902 19.8242 -9.9122
v  7.4341 19.8242 -9.9122
v  7.4341 19.8242 -14.8683
v  7.4341 29.7364 -14.8683
v  7.4341 39.6486 -14.8683
v  2.4780 29.7364 -19.8243
v  2.4780 39.6486 -19.8243
v  2.4780 19.8242 -19.8243
v  7.4341 9.9121 -14.8683
v  2.4780 9.9121 -19.8243
v  -12.3902 9.9121 -9.9122
v  7.4341 9.9121 -9.9122
v  7.4341 -0.0001 -14.8683
v  2.4780 -0.0001 -19.8243
v  -12.3902 -0.0001 -9.9122
v  7.4341 -0.0001 -9.9122
v  -2.4780 9.9121 -19.8243
v  -2.4780 -0.0001 -19.8243
v  -7.4341 -0.0001 -19.8243
v  -7.4341 9.9121 -19.8243
v  7.4341 -9.9123 -14.8683
v  7.4341 -9.9123 -9.9122
v  -2.4780 -9.9123 -19.8243
v  -7.4341 -9.9123 -19.8243
v  7.4341 -19.8244 -14.8683
v  7.4341 -19.8244 -9.9122
v  -2.4780 -19.8244 -19.8243
v  -7.4341 -19.8244 -19.8243
v  -12.3902 -9.9123 -9.9122
v  -12.3902 -19.8244 -9.9122
v  2.4780 -9.9123 -19.8243
v  2.4780 -19.8244 -19.8243
v  -7.4341 -29.7366 -19.8243
v  -2.4780 -29.7366 -19.8243
v  7.4341 -29.7366 -9.9122
v  7.4341 -29.7366 -14.8683
v  -12.3902 -29.7366 -9.9122
v  7.4341 -39.6488 -9.9122
v  7.4341 -39.6488 -14.8683
v  -7.4341 -39.6488 -19.8243
v  -2.4780 -39.6488 -19.8243
v  -12.3902 -39.6488 -9.9122
v  2.4780 -29.7366 -19.8243
v  2.4780 -39.6488 -19.8243
v  -7.4341 39.6486 -14.8683
v  -2.4780 39.6486 -14.8683
v  2.4780 39.6486 -14.8683
v  -7.4341 39.6486 -4.9561
v  -2.4780 39.6486 -4.9561
v  -2.4780 39.6486 -9.9122
v  -7.4341 39.6486 -9.9122
v  2.4780 39.6486 -9.9122
v  2.4780 39.6486 -4.9561
v  7.4341 39.6486 -4.9561
v  -12.3902 39.6486 -14.8683
v  -12.3902 39.6486 -4.9561
v  7.4341 -39.6488 9.9122
v  7.4341 -29.7366 9.9122
v  7.4341 -29.7366 14.8683
v  7.4341 -39.6488 14.8683
v  7.4341 -19.8244 9.9122
v  7.4341 -19.8244 14.8683
v  7.4341 -9.9123 14.8683
v  7.4341 -9.9123 9.9122
v  7.4341 -0.0001 14.8683
v  7.4341 -0.0001 9.9122
v  7.4341 9.9121 14.8683
v  7.4341 9.9121 9.9122
v  7.4341 19.8242 14.8683
v  7.4341 19.8242 9.9122
v  7.4341 29.7364 14.8683
v  -12.3902 -29.7366 -14.8683
v  -12.3902 -39.6488 -14.8683
v  -12.3902 -19.8244 -14.8683
v  -12.3902 -9.9123 -14.8683
v  -12.3902 -0.0001 -14.8683
v  -12.3902 9.9121 -14.8683
v  -12.3902 19.8242 -14.8683
v  -12.3902 29.7364 -14.8683
v  12.3902 19.8242 9.9122
v  12.3902 19.8242 0.0000
v  12.3902 29.7364 0.0000
v  12.3902 29.7364 9.9122
v  12.3902 9.9121 9.9122
v  12.3902 9.9121 0.0000
v  12.3902 9.9121 -9.9122
v  12.3902 19.8242 -9.9122
v  12.3902 29.7364 -9.9122
v  12.3902 -0.0001 9.9122
v  12.3902 -0.0001 0.0000
v  12.3902 -0.0001 -9.9122
v  12.3902 -9.9123 9.9122
v  12.3902 -9.9123 0.0000
v  12.3902 -9.9123 -9.9122
v  12.3902 -19.8244 0.0000
v  12.3902 -19.8244 -9.9122
v  12.3902 -19.8244 9.9122
v  12.3902 -29.7366 9.9122
v  12.3902 -29.7366 0.0000
v  12.3902 -29.7366 -9.9122
v  12.3902 -39.6488 0.0000
v  12.3902 -39.6488 -9.9122
v  12.3902 -39.6488 9.9122
v  7.4341 29.7364 -4.9561
v  12.3902 29.7364 -4.9561
v  7.4341 29.7364 4.9561
v  12.3902 29.7364 4.9561
# 190 vertices

vn -0.7071 0.0000 0.7071
vn 1.0000 0.0000 0.0000
vn -1.0000 0.0000 0.0000
vn 0.0000 0.0000 1.0000
vn 0.0000 1.0000 0.0000
vn 0.0000 0.0000 -1.0000
vn 0.7071 0.0000 -0.7071
vn 0.0000 1.0000 -0.0000
vn 0.7071 0.0000 0.7071
vn -0.7071 0.0000 -0.7071
# 10 vertex normals

vt 0.0000 0.6241 0.0000
vt 0.1875 0.6250 0.0000
vt 0.1875 1.0000 0.0000
vt 0.0000 0.9991 0.0000
vt 0.0000 0.6250 0.0000
vt 0.0000 0.2500 0.0000
vt 0.3750 0.2500 0.0000
vt 0.3750 0.6250 0.0000
vt 0.5625 0.2500 0.0000
vt 0.5625 0.6250 0.0000
vt 0.0000 0.2491 0.0000
vt 0.1875 0.2500 0.0000
vt 0.3750 1.0000 0.0000
vt 0.5625 1.0000 0.0000
vt 0.0000 1.0000 0.0000
vt 0.7500 0.2500 0.0000
vt 0.7500 0.6250 0.0000
vt -0.0001 0.2500 0.0000
vt -0.0001 0.6250 0.0000
vt 0.0001 0.6259 0.0000
vt 0.0001 1.0009 0.0000
vt 0.0001 1.0000 0.0000
vt 0.0001 0.6250 0.0000
vt 0.7500 1.0000 0.0000
vt 0.3750 0.2510 0.0000
vt 0.3750 0.6260 0.0000
vt 0.3750 0.6259 0.0000
vt 0.3750 1.0009 0.0000
vt 0.8762 0.2488 0.0000
vt 0.8762 0.1262 0.0000
vt 0.9988 0.1262 0.0000
vt 0.9988 0.2488 0.0000
vt 0.8738 0.1262 0.0000
vt 0.8738 0.2488 0.0000
vt 0.7510 0.1263 0.0000
vt 0.8762 0.1238 0.0000
vt 0.8762 0.0012 0.0000
vt 0.9988 0.0012 0.0000
vt 0.9988 0.1238 0.0000
vt 0.9976 0.2487 0.0000
vt 0.7512 0.1262 0.0000
vt 0.7512 0.2488 0.0000
vt 0.7513 0.1262 0.0000
vt 0.8737 0.1262 0.0000
vt 0.8737 0.2488 0.0000
vt 0.7513 0.2488 0.0000
vt 0.8772 0.2488 0.0000
vt 0.8731 0.2491 0.0000
vt 0.3754 0.2501 0.0000
vt 0.3754 0.6251 0.0000
vt 0.3748 0.6257 0.0000
vt 0.3748 1.0007 0.0000
vt 0.0001 0.6255 0.0000
vt 0.0001 1.0005 0.0000
vt 0.0001 0.2505 0.0000
vt 0.0001 0.2500 0.0000
vt 0.0000 0.6243 0.0000
vt 0.0000 0.9993 0.0000
vt 0.3750 0.6248 0.0000
vt 0.3750 0.2498 0.0000
vt -0.0000 1.0007 0.0000
vt 0.0000 0.6257 0.0000
vt 0.8743 0.2488 0.0000
vt 0.7513 0.1261 0.0000
vt 0.9984 0.2488 0.0000
vt 0.8761 0.2490 0.0000
vt 0.5627 0.6252 0.0000
vt 0.3755 0.6259 0.0000
vt 0.3755 1.0009 0.0000
vt 0.3755 0.2500 0.0000
vt 0.3755 0.6250 0.0000
vt 0.7509 1.0009 0.0000
vt 0.7509 0.6259 0.0000
vt 0.7509 0.2500 0.0000
vt 0.7509 0.6250 0.0000
vt 0.7514 1.0000 0.0000
vt 0.1875 0.6251 0.0000
vt 0.7493 0.6243 0.0000
vt 0.7493 0.9993 0.0000
vt 0.7500 0.2505 0.0000
vt 0.7500 0.6255 0.0000
vt 0.7500 1.0005 0.0000
vt 0.3752 0.2504 0.0000
vt 0.3752 0.6254 0.0000
# 84 texture coords

g Building_octagonLongTier
usemtl 01___Default
f 1/1/1 2/2/1 3/3/1 
f 3/3/1 4/4/1 1/1/1 
f 5/5/2 6/6/2 7/7/2 
f 7/7/2 8/8/2 5/5/2 
f 9/8/3 10/7/3 1/9/3 
f 1/9/3 4/10/3 9/8/3 
f 11/11/1 12/12/1 2/2/1 
f 2/2/1 1/1/1 11/11/1 
f 10/13/3 13/8/3 11/10/3 
f 11/10/3 1/14/3 10/13/3 
f 14/8/4 15/7/4 16/9/4 
f 16/9/4 17/10/4 14/8/4 
f 18/13/4 14/8/4 17/10/4 
f 17/10/4 19/14/4 18/13/4 
f 20/6/3 10/7/3 9/8/3 
f 9/8/3 21/5/3 20/6/3 
f 22/5/3 13/8/3 10/13/3 
f 10/13/3 20/15/3 22/5/3 
f 23/10/3 11/14/3 13/13/3 
f 13/13/3 24/8/3 23/10/3 
f 15/8/4 25/7/4 26/9/4 
f 26/9/4 16/10/4 15/8/4 
f 27/12/3 23/2/3 24/5/3 
f 24/5/3 28/6/3 27/12/3 
f 25/13/4 29/8/4 30/10/4 
f 30/10/4 26/14/4 25/13/4 
f 24/16/3 13/17/3 22/8/3 
f 22/8/3 31/7/3 24/16/3 
f 28/8/3 24/13/3 31/15/3 
f 31/15/3 32/5/3 28/8/3 
f 23/18/1 33/12/1 12/2/1 
f 12/2/1 11/19/1 23/18/1 
f 27/20/1 34/2/1 33/3/1 
f 33/3/1 23/21/1 27/20/1 
f 35/10/4 30/14/4 29/13/4 
f 29/13/4 36/8/4 35/10/4 
f 28/5/3 37/6/3 38/12/3 
f 38/12/3 27/2/3 28/5/3 
f 37/15/3 39/5/3 40/2/3 
f 40/2/3 38/3/3 37/15/3 
f 41/12/4 35/2/4 36/5/4 
f 36/5/4 42/6/4 41/12/4 
f 43/9/1 34/10/1 27/8/1 
f 27/8/1 38/7/1 43/9/1 
f 44/2/1 43/3/1 38/22/1 
f 38/22/1 40/23/1 44/2/1 
f 45/7/3 37/16/3 28/17/3 
f 28/17/3 32/8/3 45/7/3 
f 46/8/3 39/17/3 37/24/3 
f 37/24/3 45/13/3 46/8/3 
f 47/5/3 48/8/3 39/13/3 
f 39/13/3 46/15/3 47/5/3 
f 42/5/4 49/6/4 50/12/4 
f 50/12/4 41/2/4 42/5/4 
f 51/6/3 52/7/3 48/8/3 
f 48/8/3 47/5/3 51/6/3 
f 49/15/4 53/5/4 54/2/4 
f 54/2/4 50/3/4 49/15/4 
f 48/8/3 52/7/3 55/9/3 
f 55/9/3 56/10/3 48/8/3 
f 39/13/3 48/8/3 56/10/3 
f 56/10/3 40/14/3 39/13/3 
f 56/25/1 57/9/1 44/10/1 
f 44/10/1 40/26/1 56/25/1 
f 55/27/1 58/10/1 57/14/1 
f 57/14/1 56/28/1 55/27/1 
f 59/29/5 60/30/5 61/31/5 
f 61/31/5 5/32/5 59/29/5 
f 62/33/5 19/34/5 63/35/5 
f 64/36/5 65/37/5 66/38/5 
f 66/38/5 67/39/5 64/36/5 
f 18/29/5 68/30/5 69/31/5 
f 69/31/5 3/32/5 18/29/5 
f 61/30/5 62/31/5 63/40/5 
f 63/40/5 5/29/5 61/30/5 
f 65/39/5 69/36/5 68/37/5 
f 68/37/5 66/38/5 65/39/5 
f 70/41/5 60/33/5 59/34/5 
f 59/34/5 8/42/5 70/41/5 
f 71/29/5 64/30/5 67/31/5 
f 67/31/5 72/32/5 71/29/5 
f 72/29/5 67/30/5 60/31/5 
f 60/31/5 70/32/5 72/29/5 
f 61/39/5 60/36/5 67/37/5 
f 67/37/5 66/38/5 61/39/5 
f 68/39/5 62/36/5 61/37/5 
f 61/37/5 66/38/5 68/39/5 
f 18/32/5 19/29/5 62/30/5 
f 62/30/5 68/31/5 18/32/5 
f 73/43/5 64/44/5 71/45/5 
f 71/45/5 21/46/5 73/43/5 
f 9/29/5 65/30/5 64/31/5 
f 64/31/5 73/32/5 9/29/5 
f 4/47/5 69/30/5 65/31/5 
f 65/31/5 9/32/5 4/47/5 
f 3/41/5 69/33/5 4/48/5 
f 7/5/2 74/8/2 75/13/2 
f 75/13/2 8/15/2 7/5/2 
f 21/24/3 76/13/3 77/8/3 
f 77/8/3 20/17/3 21/24/3 
f 78/5/6 79/6/6 80/12/6 
f 80/12/6 81/2/6 78/5/6 
f 79/15/6 82/5/6 83/2/6 
f 83/2/6 80/3/6 79/15/6 
f 20/8/3 77/5/3 84/6/3 
f 84/6/3 22/7/3 20/8/3 
f 74/8/2 85/7/2 86/9/2 
f 86/9/2 87/10/2 74/8/2 
f 75/13/2 74/8/2 87/10/2 
f 87/10/2 88/14/2 75/13/2 
f 87/49/7 89/9/7 90/10/7 
f 90/10/7 88/50/7 87/49/7 
f 86/51/7 91/10/7 89/14/7 
f 89/14/7 87/52/7 86/51/7 
f 92/53/7 93/2/7 91/3/7 
f 91/3/7 86/54/7 92/53/7 
f 84/5/3 94/6/3 31/7/3 
f 31/7/3 22/8/3 84/5/3 
f 85/8/2 95/7/2 92/9/2 
f 92/9/2 86/10/2 85/8/2 
f 96/55/7 97/12/7 93/2/7 
f 93/2/7 92/53/7 96/55/7 
f 94/15/3 98/5/3 32/8/3 
f 32/8/3 31/13/3 94/15/3 
f 95/13/2 99/8/2 96/10/2 
f 96/10/2 92/14/2 95/13/2 
f 100/8/6 101/7/6 102/9/6 
f 102/9/6 103/10/6 100/8/6 
f 82/13/6 100/8/6 103/10/6 
f 103/10/6 83/14/6 82/13/6 
f 104/10/2 96/14/2 99/13/2 
f 99/13/2 105/8/2 104/10/2 
f 101/8/6 106/7/6 107/9/6 
f 107/9/6 102/10/6 101/8/6 
f 108/12/2 104/2/2 105/5/2 
f 105/5/2 109/6/2 108/12/2 
f 106/13/6 110/8/6 111/10/6 
f 111/10/6 107/14/6 106/13/6 
f 112/8/3 113/7/3 46/16/3 
f 46/16/3 45/17/3 112/8/3 
f 98/13/3 112/8/3 45/17/3 
f 45/17/3 32/24/3 98/13/3 
f 104/56/7 114/12/7 97/2/7 
f 97/2/7 96/23/7 104/56/7 
f 108/57/7 115/2/7 114/3/7 
f 114/3/7 104/58/7 108/57/7 
f 116/10/6 111/14/6 110/13/6 
f 110/13/6 117/8/6 116/10/6 
f 109/5/2 118/6/2 119/12/2 
f 119/12/2 108/2/2 109/5/2 
f 113/8/3 120/7/3 47/16/3 
f 47/16/3 46/17/3 113/8/3 
f 118/15/2 121/5/2 122/2/2 
f 122/2/2 119/3/2 118/15/2 
f 123/12/6 116/2/6 117/5/6 
f 117/5/6 124/6/6 123/12/6 
f 120/13/3 125/8/3 51/17/3 
f 51/17/3 47/24/3 120/13/3 
f 126/9/7 115/10/7 108/59/7 
f 108/59/7 119/60/7 126/9/7 
f 127/2/7 126/3/7 119/61/7 
f 119/61/7 122/62/7 127/2/7 
f 81/29/5 128/30/8 129/31/5 
f 129/31/5 78/32/5 81/29/5 
f 130/33/5 88/63/5 90/41/5 
f 131/36/5 132/37/5 133/38/5 
f 133/38/5 134/39/8 131/36/5 
f 75/29/5 135/30/5 136/31/5 
f 136/31/5 137/32/5 75/29/5 
f 129/30/5 130/31/5 90/32/5 
f 90/32/5 78/29/5 129/30/5 
f 132/39/5 136/36/5 135/37/5 
f 135/37/5 133/38/5 132/39/5 
f 138/64/5 128/33/8 81/34/5 
f 139/29/5 131/30/5 134/31/8 
f 134/31/8 76/32/5 139/29/5 
f 76/29/5 134/30/8 128/31/8 
f 128/31/8 138/65/5 76/29/5 
f 129/39/5 128/36/8 134/37/8 
f 134/37/8 133/38/5 129/39/5 
f 135/39/5 130/36/5 129/37/5 
f 129/37/5 133/38/5 135/39/5 
f 75/32/5 88/66/5 130/30/5 
f 130/30/5 135/31/5 75/32/5 
f 71/43/5 131/44/5 139/45/5 
f 139/45/5 21/46/5 71/43/5 
f 72/29/5 132/30/5 131/31/5 
f 131/31/5 71/32/5 72/29/5 
f 70/29/5 136/30/5 132/31/5 
f 132/31/5 72/32/5 70/29/5 
f 137/41/5 136/33/5 70/34/5 
f 70/34/5 8/42/5 137/41/5 
f 140/8/2 141/13/2 142/3/2 
f 142/3/2 143/2/2 140/8/2 
f 141/16/2 144/17/2 145/10/2 
f 145/10/2 142/9/2 141/16/2 
f 146/3/2 145/2/2 144/8/2 
f 144/8/2 147/13/2 146/3/2 
f 148/2/2 146/12/2 147/7/2 
f 147/7/2 149/8/2 148/2/2 
f 150/2/2 148/12/2 149/7/2 
f 149/7/2 151/8/2 150/2/2 
f 152/3/2 150/2/2 151/8/2 
f 151/8/2 153/13/2 152/3/2 
f 154/14/2 152/10/2 153/17/2 
f 153/17/2 6/24/2 154/14/2 
f 63/67/2 154/9/2 6/16/2 
f 6/16/2 5/17/2 63/67/2 
f 50/3/9 54/2/9 143/68/9 
f 143/68/9 142/69/9 50/3/9 
f 41/2/9 50/12/9 142/70/9 
f 142/70/9 145/71/9 41/2/9 
f 146/71/9 35/2/9 41/12/9 
f 41/12/9 145/70/9 146/71/9 
f 148/72/9 30/14/9 35/10/9 
f 35/10/9 146/73/9 148/72/9 
f 26/14/9 30/10/9 148/73/9 
f 148/73/9 150/72/9 26/14/9 
f 16/10/9 26/9/9 150/16/9 
f 150/16/9 152/17/9 16/10/9 
f 17/10/9 16/9/9 152/74/9 
f 152/74/9 154/75/9 17/10/9 
f 19/14/9 17/10/9 154/75/9 
f 154/75/9 63/76/9 19/14/9 
f 57/14/4 58/10/4 53/17/4 
f 53/17/4 49/24/4 57/14/4 
f 44/10/4 57/9/4 49/16/4 
f 49/16/4 42/17/4 44/10/4 
f 42/8/4 36/13/4 43/3/4 
f 43/3/4 44/2/4 42/8/4 
f 36/16/4 29/17/4 34/10/4 
f 34/10/4 43/9/4 36/16/4 
f 33/3/4 34/2/4 29/8/4 
f 29/8/4 25/13/4 33/3/4 
f 12/2/4 33/12/4 25/7/4 
f 25/7/4 15/8/4 12/2/4 
f 2/2/4 12/12/4 15/7/4 
f 15/7/4 14/8/4 2/2/4 
f 3/3/4 2/2/4 14/8/4 
f 14/8/4 18/13/4 3/3/4 
f 124/8/6 117/13/6 126/3/6 
f 126/3/6 127/2/6 124/8/6 
f 117/16/6 110/17/6 115/10/6 
f 115/10/6 126/9/6 117/16/6 
f 114/3/6 115/2/6 110/8/6 
f 110/8/6 106/13/6 114/3/6 
f 97/2/6 114/12/6 106/7/6 
f 106/7/6 101/8/6 97/2/6 
f 93/2/6 97/12/6 101/7/6 
f 101/7/6 100/8/6 93/2/6 
f 91/3/6 93/2/6 100/8/6 
f 100/8/6 82/13/6 91/3/6 
f 89/14/6 91/10/6 82/17/6 
f 82/17/6 79/24/6 89/14/6 
f 90/10/6 89/9/6 79/16/6 
f 79/16/6 78/17/6 90/10/6 
f 155/3/3 156/2/3 125/8/3 
f 125/8/3 120/13/3 155/3/3 
f 157/2/3 155/12/3 120/7/3 
f 120/7/3 113/8/3 157/2/3 
f 158/77/3 157/12/3 113/7/3 
f 113/7/3 112/8/3 158/77/3 
f 159/3/3 158/77/3 112/8/3 
f 112/8/3 98/13/3 159/3/3 
f 160/14/3 159/10/3 98/17/3 
f 98/17/3 94/24/3 160/14/3 
f 161/10/3 160/9/3 94/16/3 
f 94/16/3 84/17/3 161/10/3 
f 84/8/3 77/13/3 162/3/3 
f 162/3/3 161/2/3 84/8/3 
f 77/16/3 76/17/3 138/10/3 
f 138/10/3 162/9/3 77/16/3 
f 155/8/10 116/2/10 123/12/10 
f 123/12/10 156/7/10 155/8/10 
f 157/24/10 111/14/10 116/10/10 
f 116/10/10 155/17/10 157/24/10 
f 107/14/10 111/10/10 157/78/10 
f 157/78/10 158/79/10 107/14/10 
f 102/10/10 107/9/10 158/16/10 
f 158/16/10 159/17/10 102/10/10 
f 103/10/10 102/9/10 159/80/10 
f 159/80/10 160/81/10 103/10/10 
f 83/14/10 103/10/10 160/81/10 
f 160/81/10 161/82/10 83/14/10 
f 80/3/10 83/2/10 161/8/10 
f 161/8/10 162/13/10 80/3/10 
f 81/2/10 80/12/10 162/83/10 
f 162/83/10 138/84/10 81/2/10 
f 163/5/2 164/8/2 165/13/2 
f 165/13/2 166/15/2 163/5/2 
f 6/10/4 153/9/4 163/16/4 
f 163/16/4 166/17/4 6/10/4 
f 167/6/2 168/7/2 164/8/2 
f 164/8/2 163/5/2 167/6/2 
f 153/14/4 151/10/4 167/17/4 
f 167/17/4 163/24/4 153/14/4 
f 164/8/2 168/7/2 169/16/2 
f 169/16/2 170/17/2 164/8/2 
f 165/13/2 164/8/2 170/17/2 
f 170/17/2 171/24/2 165/13/2 
f 167/24/4 151/14/4 149/10/4 
f 149/10/4 172/17/4 167/24/4 
f 168/8/2 173/7/2 174/16/2 
f 174/16/2 169/17/2 168/8/2 
f 172/8/4 149/2/4 147/12/4 
f 147/12/4 175/7/4 172/8/4 
f 173/13/2 176/8/2 177/17/2 
f 177/17/2 174/24/2 173/13/2 
f 172/6/2 173/7/2 168/8/2 
f 168/8/2 167/5/2 172/6/2 
f 175/5/2 176/8/2 173/13/2 
f 173/13/2 172/15/2 175/5/2 
f 177/24/2 176/13/2 178/8/2 
f 178/8/2 179/17/2 177/24/2 
f 147/2/4 144/12/4 180/7/4 
f 180/7/4 175/8/4 147/2/4 
f 144/3/4 141/2/4 181/8/4 
f 181/8/4 180/13/4 144/3/4 
f 179/8/2 178/5/2 182/6/2 
f 182/6/2 183/7/2 179/8/2 
f 178/16/2 176/17/2 175/8/2 
f 175/8/2 180/7/2 178/16/2 
f 182/8/2 178/13/2 180/15/2 
f 180/15/2 181/5/2 182/8/2 
f 182/5/2 184/6/2 185/7/2 
f 185/7/2 183/8/2 182/5/2 
f 141/14/4 140/10/4 186/17/4 
f 186/17/4 181/24/4 141/14/4 
f 186/7/2 184/16/2 182/17/2 
f 182/17/2 181/8/2 186/7/2 
f 187/33/5 188/34/5 171/42/5 
f 171/42/5 74/41/5 187/33/5 
f 165/29/5 7/30/5 189/31/5 
f 189/31/5 190/32/5 165/29/5 
f 165/32/5 188/29/5 187/30/5 
f 187/30/5 7/31/5 165/32/5 
f 190/41/5 189/33/5 6/34/5 
f 6/34/5 166/42/5 190/41/5 
f 170/7/6 85/9/6 74/10/6 
f 74/10/6 171/8/6 170/7/6 
f 169/8/6 95/10/6 85/14/6 
f 85/14/6 170/13/6 169/8/6 
f 174/5/6 99/2/6 95/3/6 
f 95/3/6 169/15/6 174/5/6 
f 177/6/6 105/12/6 99/2/6 
f 99/2/6 174/5/6 177/6/6 
f 179/6/6 109/12/6 105/2/6 
f 105/2/6 177/5/6 179/6/6 
f 183/5/6 118/2/6 109/3/6 
f 109/3/6 179/15/6 183/5/6 
f 121/9/6 118/10/6 183/8/6 
f 183/8/6 185/7/6 121/9/6 
# 352 faces

