# 3ds Max Wavefront OBJ Exporter v0.97b - (c)2007 guruware
# File Created: 24.05.2021 22:44:05

mtllib boat.mtl

#
# object Cube
#

v  84.6317 -6.5790 77.2733
v  156.8597 17.0812 74.2671
v  133.6028 24.5063 155.2876
v  87.6075 27.1764 181.4882
v  76.5588 1.7191 -327.8286
v  77.5943 79.6755 -372.6892
v  83.6982 79.4525 -372.8096
v  81.7981 1.5875 -327.9357
v  171.1525 96.7600 95.9378
v  144.0229 104.2565 190.4241
v  120.1498 -3.0796 -247.5409
v  77.6152 -23.3850 -245.3878
v  151.8367 0.0598 -167.4687
v  79.2583 -23.8490 -164.4399
v  164.5137 4.2759 -87.0440
v  81.0081 -19.8272 -83.7637
v  166.3067 10.1107 -6.4777
v  82.8057 -13.8010 -3.2090
v  128.4934 78.3183 -279.3833
v  165.3092 77.3464 -185.7916
v  180.0812 82.2245 -92.0676
v  182.1688 88.9461 1.8241
v  90.0616 106.4095 204.4651
v  40.5045 26.8381 157.1907
v  13.6158 20.6689 77.1951
v  71.3194 1.8499 -327.7215
v  71.4870 79.7583 -372.5600
v  35.5319 106.9737 192.6418
v  4.2249 100.9408 99.3500
v  36.0976 -0.9745 -245.8228
v  7.9041 3.6647 -164.5266
v  -1.2509 8.4276 -83.6556
v  0.5421 14.2625 -3.0893
v  30.5441 80.7716 -277.3811
v  -2.4211 81.5474 -182.3630
v  -13.0906 87.0627 -88.1189
v  -11.0029 93.7843 5.7728
v  80.7396 2.9175 -319.8434
v  82.3069 80.0064 -361.8896
v  77.8448 80.2019 -361.0773
v  76.7547 3.1534 -320.0038
v  131.8924 25.1126 147.3556
v  141.7468 103.9744 180.0410
v  166.9285 96.5188 90.4792
v  153.8621 18.0819 70.3231
v  118.0083 -2.2677 -241.7326
v  125.4016 78.5707 -270.9861
v  149.0328 1.4802 -163.1580
v  161.4126 77.6717 -179.7896
v  161.2620 5.6570 -85.6932
v  175.5102 82.4714 -90.1116
v  162.9989 11.3120 -7.8543
v  177.5212 88.9537 -0.0311
v  87.4615 27.8378 173.5363
v  89.8132 105.9732 192.8477
v  73.3491 80.2308 -361.7065
v  72.7728 3.1170 -319.6805
v  8.2051 100.4942 93.7237
v  37.3651 106.5887 182.1747
v  41.9178 27.3661 149.1948
v  16.4961 21.5224 73.1311
v  33.9851 80.8603 -269.1175
v  38.5125 -0.2767 -240.1076
v  1.7287 81.6712 -176.5255
v  10.9493 4.9387 -160.3354
v  -8.4369 87.0785 -86.3515
v  2.1183 9.6429 -82.4401
v  -6.4404 93.5611 3.7293
v  3.8469 15.2981 -4.6011
v  86.9074 26.3213 148.2880
v  85.1711 16.0738 75.9008
v  78.1550 -0.7147 -246.7614
v  79.7978 -1.1877 -165.8129
v  81.5475 2.8301 -85.1365
v  83.3451 8.8536 -4.5816
# 75 vertices

vn 0.3831 -0.5578 0.7363
vn -0.0250 -0.1390 -0.9900
vn 0.7954 -0.0638 0.6027
vn 0.4066 -0.4408 -0.8002
vn 0.6191 -0.6620 -0.4224
vn 0.6163 -0.7799 -0.1087
vn 0.6016 -0.7924 0.1005
vn 0.6115 -0.7464 0.2624
vn 0.6258 -0.1237 -0.7701
vn 0.7094 -0.1199 -0.6945
vn 0.9361 -0.1085 -0.3346
vn 0.9955 -0.0940 -0.0110
vn 0.9441 -0.0778 0.3204
vn 0.1701 -0.0163 0.9853
vn -0.3801 -0.5387 0.7519
vn -0.0225 -0.1391 -0.9900
vn -0.7723 -0.0245 0.6348
vn -0.4605 -0.4191 -0.7825
vn -0.6682 -0.6298 -0.3961
vn -0.6585 -0.7480 -0.0827
vn -0.6359 -0.7614 0.1258
vn -0.6369 -0.7152 0.2879
vn -0.6621 -0.0914 -0.7438
vn -0.7423 -0.0836 -0.6649
vn -0.9532 -0.0612 -0.2960
vn -0.9986 -0.0441 0.0297
vn -0.9329 -0.0308 0.3588
vn -0.1303 -0.0088 0.9914
vn 0.0510 0.1328 0.9898
vn -0.7994 0.0591 -0.5978
vn -0.6286 0.1181 0.7687
vn -0.7111 0.1141 0.6938
vn -0.9369 0.1030 0.3341
vn -0.9960 0.0885 0.0118
vn -0.9448 0.0723 -0.3196
vn -0.1710 0.0105 -0.9852
vn -0.0038 0.1342 0.9909
vn 0.7763 0.0196 -0.6300
vn 0.6646 0.0857 0.7423
vn 0.7436 0.0776 0.6641
vn 0.9537 0.0556 0.2954
vn 0.9988 0.0385 -0.0289
vn 0.9334 0.0253 -0.3580
vn 0.1309 0.0030 -0.9914
vn 0.0541 0.9981 0.0301
vn 0.1369 0.9886 -0.0619
vn 0.1583 0.9729 0.1685
vn 0.1063 0.9671 0.2311
vn 0.0038 0.9996 -0.0279
vn 0.0302 0.9907 -0.1329
vn 0.0588 0.9835 -0.1708
vn 0.0410 0.9950 0.0913
vn -0.0028 0.9995 0.0313
vn -0.0897 0.9943 -0.0573
vn -0.1024 0.9794 0.1738
vn -0.0483 0.9710 0.2342
vn 0.0451 0.9986 -0.0287
vn 0.0140 0.9911 -0.1326
vn -0.0165 0.9854 -0.1693
vn 0.0126 0.9957 0.0918
vn -0.0703 0.9180 -0.3903
vn 0.0500 0.8514 0.5222
vn -0.0530 0.9802 0.1908
vn -0.1242 0.9922 0.0088
vn -0.1227 0.9825 -0.1403
vn -0.1236 0.9628 -0.2401
vn 0.1001 0.9137 -0.3938
vn 0.0141 0.8523 0.5229
vn 0.1097 0.9761 0.1875
vn 0.1739 0.9848 0.0027
vn 0.1659 0.9752 -0.1462
vn 0.1618 0.9557 -0.2459
# 72 vertex normals

vt 0.2937 0.1824 0.0000
vt 0.2937 0.0875 0.0000
vt 0.2050 0.1207 0.0000
vt 0.2050 0.1824 0.0000
vt 0.9536 0.3169 0.0000
vt 0.9536 0.4387 0.0000
vt 0.9420 0.4387 0.0000
vt 0.9436 0.3169 0.0000
vt -0.0928 0.3340 0.0000
vt -0.1660 0.5451 0.0000
vt -0.4241 0.5451 0.0000
vt -0.3143 0.3340 0.0000
vt 0.7372 0.1824 0.0000
vt 0.7372 0.1754 0.0000
vt 0.6485 0.1267 0.0000
vt 0.6485 0.1824 0.0000
vt 0.5598 0.0870 0.0000
vt 0.5598 0.1824 0.0000
vt 0.4711 0.0725 0.0000
vt 0.4711 0.1824 0.0000
vt 0.3824 0.0725 0.0000
vt 0.3824 0.1824 0.0000
vt 1.0144 0.3340 0.0000
vt 1.1243 0.5451 0.0000
vt 0.8662 0.5451 0.0000
vt 0.7930 0.3340 0.0000
vt 0.6081 0.5451 0.0000
vt 0.5715 0.3340 0.0000
vt 0.3501 0.5451 0.0000
vt 0.3501 0.3340 0.0000
vt 0.0920 0.5451 0.0000
vt 0.1286 0.3340 0.0000
vt 1.0740 0.3436 0.0000
vt 1.1099 0.6410 0.0000
vt 0.8571 0.6410 0.0000
vt 0.8571 0.3436 0.0000
vt 0.2937 0.7968 0.0000
vt 0.2050 0.7968 0.0000
vt 0.2050 0.7351 0.0000
vt 0.2937 0.7019 0.0000
vt 0.9636 0.3169 0.0000
vt 0.9653 0.4387 0.0000
vt 0.0020 0.4143 0.0000
vt -0.2154 0.4143 0.0000
vt -0.3232 0.6215 0.0000
vt -0.0699 0.6215 0.0000
vt 0.7372 0.7968 0.0000
vt 0.6485 0.7968 0.0000
vt 0.6485 0.7411 0.0000
vt 0.7372 0.7898 0.0000
vt 0.5598 0.7968 0.0000
vt 0.5598 0.7014 0.0000
vt 0.4711 0.7968 0.0000
vt 0.4711 0.6870 0.0000
vt 0.3824 0.7968 0.0000
vt 0.3824 0.6870 0.0000
vt 1.0887 0.4143 0.0000
vt 0.8714 0.4143 0.0000
vt 0.9433 0.6215 0.0000
vt 1.1965 0.6215 0.0000
vt 0.6540 0.4143 0.0000
vt 0.6900 0.6215 0.0000
vt 0.4367 0.4143 0.0000
vt 0.4367 0.6215 0.0000
vt 0.2193 0.4143 0.0000
vt 0.1834 0.6215 0.0000
vt 0.6401 0.3436 0.0000
vt 0.6042 0.6410 0.0000
vt 0.8571 0.4416 0.0000
vt 0.8571 0.5431 0.0000
vt 0.9433 0.5431 0.0000
vt 0.9311 0.4416 0.0000
vt 0.0067 0.8811 0.0000
vt -0.2466 0.8811 0.0000
vt -0.1388 0.6739 0.0000
vt 0.0785 0.6739 0.0000
vt 1.2731 0.8811 0.0000
vt 1.0198 0.8811 0.0000
vt 0.9479 0.6739 0.0000
vt 1.1653 0.6739 0.0000
vt 0.7665 0.8811 0.0000
vt 0.7306 0.6739 0.0000
vt 0.5132 0.8811 0.0000
vt 0.5132 0.6739 0.0000
vt 0.2599 0.8811 0.0000
vt 0.2959 0.6739 0.0000
vt 0.7708 0.5431 0.0000
vt 0.7831 0.4416 0.0000
vt 1.0523 0.1292 0.0000
vt 1.0513 0.1507 0.0000
vt 1.0173 0.1490 0.0000
vt 1.0201 0.1334 0.0000
vt -0.5797 -0.1187 0.0000
vt -0.3029 -0.2071 0.0000
vt -0.2877 -0.1921 0.0000
vt -0.5504 -0.1103 0.0000
vt 0.7815 -0.0340 0.0000
vt 0.7567 -0.0237 0.0000
vt 0.5126 -0.1674 0.0000
vt 0.4948 -0.1543 0.0000
vt 0.2431 -0.2254 0.0000
vt 0.2369 -0.2097 0.0000
vt -0.0287 -0.2391 0.0000
vt -0.0239 -0.2229 0.0000
vt -0.5893 0.0702 0.0000
vt -0.5561 0.0718 0.0000
vt 1.0501 0.1722 0.0000
vt 1.0185 0.1649 0.0000
vt -0.3319 0.3747 0.0000
vt -0.5986 0.2593 0.0000
vt -0.5686 0.2536 0.0000
vt -0.3153 0.3612 0.0000
vt 0.7644 0.3092 0.0000
vt 0.7407 0.2965 0.0000
vt 0.4834 0.4167 0.0000
vt 0.4670 0.4018 0.0000
vt 0.2095 0.4474 0.0000
vt 0.2049 0.4311 0.0000
vt -0.0623 0.4339 0.0000
vt -0.0559 0.4182 0.0000
vt 1.6187 0.4580 0.0000
vt 1.6186 0.9702 0.0000
vt 1.2378 1.2400 0.0000
vt 1.2574 0.4580 0.0000
vt -0.3445 0.4580 0.0000
vt -0.3157 0.9106 0.0000
vt -0.7046 0.5034 0.0000
vt -0.7058 0.4580 0.0000
vt 0.0560 0.4580 0.0000
vt 0.0774 1.2441 0.0000
vt 0.4564 0.4580 0.0000
vt 0.4632 1.3640 0.0000
vt 0.8569 0.4580 0.0000
vt 0.8501 1.3640 0.0000
vt 1.2378 -0.3240 0.0000
vt 1.6186 -0.0542 0.0000
vt -0.7046 0.4126 0.0000
vt -0.3157 0.0054 0.0000
vt 0.0774 -0.3281 0.0000
vt 0.4632 -0.4480 0.0000
vt 0.8501 -0.4480 0.0000
# 141 texture coords

o Cube
g Cube
usemtl 07___Default
f 1/1/1 2/2/1 3/3/1 
f 3/3/1 4/4/1 1/1/1 
f 5/5/2 6/6/2 7/7/2 
f 7/7/2 8/8/2 5/5/2 
f 2/9/3 9/10/3 10/11/3 
f 10/11/3 3/12/3 2/9/3 
f 5/13/4 8/14/4 11/15/4 
f 11/15/4 12/16/4 5/13/4 
f 12/16/5 11/15/5 13/17/5 
f 13/17/5 14/18/5 12/16/5 
f 14/18/6 13/17/6 15/19/6 
f 15/19/6 16/20/6 14/18/6 
f 16/20/7 15/19/7 17/21/7 
f 17/21/7 18/22/7 16/20/7 
f 18/22/8 17/21/8 2/2/8 
f 2/2/8 1/1/8 18/22/8 
f 8/23/9 7/24/9 19/25/9 
f 19/25/9 11/26/9 8/23/9 
f 11/26/10 19/25/10 20/27/10 
f 20/27/10 13/28/10 11/26/10 
f 13/28/11 20/27/11 21/29/11 
f 21/29/11 15/30/11 13/28/11 
f 15/30/12 21/29/12 22/31/12 
f 22/31/12 17/32/12 15/30/12 
f 17/32/13 22/31/13 9/10/13 
f 9/10/13 2/9/13 17/32/13 
f 3/33/14 10/34/14 23/35/14 
f 23/35/14 4/36/14 3/33/14 
f 1/37/15 4/38/15 24/39/15 
f 24/39/15 25/40/15 1/37/15 
f 5/5/16 26/41/16 27/42/16 
f 27/42/16 6/6/16 5/5/16 
f 25/43/17 24/44/17 28/45/17 
f 28/45/17 29/46/17 25/43/17 
f 5/47/18 12/48/18 30/49/18 
f 30/49/18 26/50/18 5/47/18 
f 12/48/19 14/51/19 31/52/19 
f 31/52/19 30/49/19 12/48/19 
f 14/51/20 16/53/20 32/54/20 
f 32/54/20 31/52/20 14/51/20 
f 16/53/21 18/55/21 33/56/21 
f 33/56/21 32/54/21 16/53/21 
f 18/55/22 1/37/22 25/40/22 
f 25/40/22 33/56/22 18/55/22 
f 26/57/23 30/58/23 34/59/23 
f 34/59/23 27/60/23 26/57/23 
f 30/58/24 31/61/24 35/62/24 
f 35/62/24 34/59/24 30/58/24 
f 31/61/25 32/63/25 36/64/25 
f 36/64/25 35/62/25 31/61/25 
f 32/63/26 33/65/26 37/66/26 
f 37/66/26 36/64/26 32/63/26 
f 33/65/27 25/43/27 29/46/27 
f 29/46/27 37/66/27 33/65/27 
f 24/67/28 4/36/28 23/35/28 
f 23/35/28 28/68/28 24/67/28 
f 38/8/29 39/7/29 40/6/29 
f 40/6/29 41/5/29 38/8/29 
f 42/12/30 43/11/30 44/10/30 
f 44/10/30 45/9/30 42/12/30 
f 46/26/31 47/25/31 39/24/31 
f 39/24/31 38/23/31 46/26/31 
f 48/28/32 49/27/32 47/25/32 
f 47/25/32 46/26/32 48/28/32 
f 50/30/33 51/29/33 49/27/33 
f 49/27/33 48/28/33 50/30/33 
f 52/32/34 53/31/34 51/29/34 
f 51/29/34 50/30/34 52/32/34 
f 45/9/35 44/10/35 53/31/35 
f 53/31/35 52/32/35 45/9/35 
f 54/69/36 55/70/36 43/71/36 
f 43/71/36 42/72/36 54/69/36 
f 40/6/37 56/42/37 57/41/37 
f 57/41/37 41/5/37 40/6/37 
f 58/73/38 59/74/38 60/75/38 
f 60/75/38 61/76/38 58/73/38 
f 56/77/39 62/78/39 63/79/39 
f 63/79/39 57/80/39 56/77/39 
f 62/78/40 64/81/40 65/82/40 
f 65/82/40 63/79/40 62/78/40 
f 64/81/41 66/83/41 67/84/41 
f 67/84/41 65/82/41 64/81/41 
f 66/83/42 68/85/42 69/86/42 
f 69/86/42 67/84/42 66/83/42 
f 68/85/43 58/73/43 61/76/43 
f 61/76/43 69/86/43 68/85/43 
f 59/87/44 55/70/44 54/69/44 
f 54/69/44 60/88/44 59/87/44 
f 7/89/45 6/90/45 40/91/45 
f 40/91/45 39/92/45 7/89/45 
f 10/93/46 9/94/46 44/95/46 
f 44/95/46 43/96/46 10/93/46 
f 19/97/47 7/89/47 39/92/47 
f 39/92/47 47/98/47 19/97/47 
f 20/99/48 19/97/48 47/98/48 
f 47/98/48 49/100/48 20/99/48 
f 21/101/49 20/99/49 49/100/49 
f 49/100/49 51/102/49 21/101/49 
f 22/103/50 21/101/50 51/102/50 
f 51/102/50 53/104/50 22/103/50 
f 9/94/51 22/103/51 53/104/51 
f 53/104/51 44/95/51 9/94/51 
f 23/105/52 10/93/52 43/96/52 
f 43/96/52 55/106/52 23/105/52 
f 6/90/53 27/107/53 56/108/53 
f 56/108/53 40/91/53 6/90/53 
f 29/109/54 28/110/54 59/111/54 
f 59/111/54 58/112/54 29/109/54 
f 27/107/55 34/113/55 62/114/55 
f 62/114/55 56/108/55 27/107/55 
f 34/113/56 35/115/56 64/116/56 
f 64/116/56 62/114/56 34/113/56 
f 35/115/57 36/117/57 66/118/57 
f 66/118/57 64/116/57 35/115/57 
f 36/117/58 37/119/58 68/120/58 
f 68/120/58 66/118/58 36/117/58 
f 37/119/59 29/109/59 58/112/59 
f 58/112/59 68/120/59 37/119/59 
f 28/110/60 23/105/60 55/106/60 
f 55/106/60 59/111/60 28/110/60 
f 70/121/61 42/122/61 45/123/61 
f 45/123/61 71/124/61 70/121/61 
f 72/125/62 46/126/62 38/127/62 
f 38/127/62 41/128/62 72/125/62 
f 73/129/63 48/130/63 46/126/63 
f 46/126/63 72/125/63 73/129/63 
f 74/131/64 50/132/64 48/130/64 
f 48/130/64 73/129/64 74/131/64 
f 75/133/65 52/134/65 50/132/65 
f 50/132/65 74/131/65 75/133/65 
f 71/124/66 45/123/66 52/134/66 
f 52/134/66 75/133/66 71/124/66 
f 61/135/67 60/136/67 70/121/67 
f 70/121/67 71/124/67 61/135/67 
f 57/137/68 63/138/68 72/125/68 
f 72/125/68 41/128/68 57/137/68 
f 63/138/69 65/139/69 73/129/69 
f 73/129/69 72/125/69 63/138/69 
f 65/139/70 67/140/70 74/131/70 
f 74/131/70 73/129/70 65/139/70 
f 67/140/71 69/141/71 75/133/71 
f 75/133/71 74/131/71 67/140/71 
f 69/141/72 61/135/72 71/124/72 
f 71/124/72 75/133/72 69/141/72 
# 144 faces

#
# object Cube_001
#

v  -6.3949 74.2870 -125.2136
v  -0.5770 71.9999 -160.6758
v  -0.6792 67.7104 -160.4159
v  -6.4970 69.9975 -124.9537
v  161.9018 67.9296 -164.0102
v  161.7997 63.6402 -163.7503
v  169.1297 69.8916 -128.7887
v  169.0276 65.6021 -128.5288
v  172.2064 79.8375 36.0847
v  168.2953 82.1254 72.3089
v  168.1917 77.7766 72.5724
v  172.1029 75.4887 36.3482
v  5.8055 86.1964 75.6518
v  5.7019 81.8476 75.9153
v  0.6482 84.1330 39.5704
v  0.5447 79.7843 39.8338
# 16 vertices

vn -0.9996 0.0227 -0.0183
vn -0.0223 -0.0599 -0.9980
vn 0.9979 -0.0273 -0.0583
vn 0.0215 0.0600 0.9980
vn -0.0238 -0.9979 0.0605
vn 0.0238 0.9979 -0.0605
vn 0.9997 -0.0234 0.0066
vn 0.0225 0.0599 0.9979
vn -0.9986 0.0265 0.0455
vn -0.0213 -0.0600 -0.9980
# 10 vertex normals

vt 0.1982 0.3447 0.0000
vt 0.7455 0.3447 0.0000
vt 0.7455 0.2787 0.0000
vt 0.1982 0.2787 0.0000
vt 0.1429 0.6797 0.0000
vt 0.8535 0.6797 0.0000
vt 0.8535 0.6618 0.0000
vt 0.1429 0.6618 0.0000
vt 0.2169 0.7968 0.0000
vt 0.2169 0.8847 0.0000
vt 0.6880 0.8847 0.0000
vt 0.6880 0.7968 0.0000
vt 0.8316 0.3986 0.0000
vt 0.8316 0.5172 0.0000
vt 0.1648 0.5172 0.0000
vt 0.1648 0.3986 0.0000
# 16 texture coords

o Cube_001
g Cube_001
usemtl 07___Default
f 76/142/73 77/143/73 78/144/73 
f 78/144/73 79/145/73 76/142/73 
f 77/146/74 80/147/74 81/148/74 
f 81/148/74 78/149/74 77/146/74 
f 80/143/75 82/142/75 83/145/75 
f 83/145/75 81/144/75 80/143/75 
f 82/147/76 76/146/76 79/149/76 
f 79/149/76 83/148/76 82/147/76 
f 79/150/77 78/151/77 81/152/77 
f 81/152/77 83/153/77 79/150/77 
f 82/154/78 80/155/78 77/156/78 
f 77/156/78 76/157/78 82/154/78 
f 84/142/79 85/143/79 86/144/79 
f 86/144/79 87/145/79 84/142/79 
f 85/146/80 88/147/80 89/148/80 
f 89/148/80 86/149/80 85/146/80 
f 88/143/81 90/142/81 91/145/81 
f 91/145/81 89/144/81 88/143/81 
f 90/147/82 84/146/82 87/149/82 
f 87/149/82 91/148/82 90/147/82 
f 87/150/77 86/151/77 89/152/77 
f 89/152/77 91/153/77 87/150/77 
f 90/154/78 88/155/78 85/156/78 
f 85/156/78 84/157/78 90/154/78 
# 24 faces

